<mxfile host="app.diagrams.net" modified="2023-10-01T19:43:28.605Z" agent="Mozilla/5.0 (Macintosh; Intel Mac OS X 10_15_7) AppleWebKit/537.36 (KHTML, like Gecko) Chrome/117.0.0.0 Safari/537.36" etag="_8Y3oogsrwzVdzNrAD_a" version="22.0.0" type="github">
  <diagram name="Page-1" id="PrcfNJzN-grxPqzePuiW">
    <mxGraphModel dx="1306" dy="733" grid="1" gridSize="10" guides="1" tooltips="1" connect="1" arrows="1" fold="1" page="1" pageScale="1" pageWidth="850" pageHeight="1100" math="0" shadow="0">
      <root>
        <mxCell id="0" />
        <mxCell id="1" parent="0" />
        <mxCell id="ra0y-LKHOd2-EffuDn9k-1" value="Builder" style="whiteSpace=wrap;html=1;aspect=fixed;" vertex="1" parent="1">
          <mxGeometry x="315" y="20" width="110" height="110" as="geometry" />
        </mxCell>
        <mxCell id="ra0y-LKHOd2-EffuDn9k-2" value="CilvilEngineer" style="whiteSpace=wrap;html=1;aspect=fixed;" vertex="1" parent="1">
          <mxGeometry x="250" y="340" width="120" height="120" as="geometry" />
        </mxCell>
        <mxCell id="ra0y-LKHOd2-EffuDn9k-3" value="&amp;lt;&amp;lt;HouseBuilder&amp;gt;&amp;gt;" style="whiteSpace=wrap;html=1;aspect=fixed;" vertex="1" parent="1">
          <mxGeometry x="500" y="370" width="130" height="130" as="geometry" />
        </mxCell>
        <mxCell id="ra0y-LKHOd2-EffuDn9k-4" value="House" style="whiteSpace=wrap;html=1;aspect=fixed;" vertex="1" parent="1">
          <mxGeometry x="110" y="130" width="80" height="80" as="geometry" />
        </mxCell>
        <mxCell id="ra0y-LKHOd2-EffuDn9k-5" value="&amp;lt;&amp;lt;HousePlan&amp;gt;&amp;gt;" style="whiteSpace=wrap;html=1;aspect=fixed;" vertex="1" parent="1">
          <mxGeometry x="60" y="320" width="100" height="100" as="geometry" />
        </mxCell>
        <mxCell id="ra0y-LKHOd2-EffuDn9k-6" value="IglooHouseBuilder" style="whiteSpace=wrap;html=1;aspect=fixed;" vertex="1" parent="1">
          <mxGeometry x="540" y="100" width="120" height="120" as="geometry" />
        </mxCell>
        <mxCell id="ra0y-LKHOd2-EffuDn9k-14" value="" style="endArrow=block;dashed=1;endFill=0;endSize=12;html=1;rounded=0;exitX=0.5;exitY=1;exitDx=0;exitDy=0;" edge="1" parent="1" source="ra0y-LKHOd2-EffuDn9k-4">
          <mxGeometry width="160" relative="1" as="geometry">
            <mxPoint x="-60" y="320" as="sourcePoint" />
            <mxPoint x="100" y="320" as="targetPoint" />
          </mxGeometry>
        </mxCell>
        <mxCell id="ra0y-LKHOd2-EffuDn9k-15" value="" style="endArrow=block;dashed=1;endFill=0;endSize=12;html=1;rounded=0;" edge="1" parent="1">
          <mxGeometry width="160" relative="1" as="geometry">
            <mxPoint x="600" y="230" as="sourcePoint" />
            <mxPoint x="550.04" y="370" as="targetPoint" />
          </mxGeometry>
        </mxCell>
        <mxCell id="ra0y-LKHOd2-EffuDn9k-24" value="" style="endArrow=diamondThin;endFill=0;endSize=24;html=1;rounded=0;exitX=0.367;exitY=-0.017;exitDx=0;exitDy=0;exitPerimeter=0;entryX=0.436;entryY=1.055;entryDx=0;entryDy=0;entryPerimeter=0;" edge="1" parent="1" source="ra0y-LKHOd2-EffuDn9k-2" target="ra0y-LKHOd2-EffuDn9k-1">
          <mxGeometry width="160" relative="1" as="geometry">
            <mxPoint x="179.99999999999997" y="90" as="sourcePoint" />
            <mxPoint x="323.97" y="340" as="targetPoint" />
          </mxGeometry>
        </mxCell>
        <mxCell id="ra0y-LKHOd2-EffuDn9k-26" value="" style="endArrow=open;endFill=1;endSize=12;html=1;rounded=0;" edge="1" parent="1">
          <mxGeometry width="160" relative="1" as="geometry">
            <mxPoint x="340" y="380" as="sourcePoint" />
            <mxPoint x="500" y="380" as="targetPoint" />
          </mxGeometry>
        </mxCell>
        <mxCell id="ra0y-LKHOd2-EffuDn9k-27" value="" style="endArrow=open;endFill=1;endSize=12;html=1;rounded=0;" edge="1" parent="1">
          <mxGeometry width="160" relative="1" as="geometry">
            <mxPoint x="340" y="380" as="sourcePoint" />
            <mxPoint x="500" y="380" as="targetPoint" />
          </mxGeometry>
        </mxCell>
        <mxCell id="ra0y-LKHOd2-EffuDn9k-28" value="" style="endArrow=diamondThin;endFill=1;endSize=24;html=1;rounded=0;exitX=1;exitY=0.5;exitDx=0;exitDy=0;" edge="1" parent="1" source="ra0y-LKHOd2-EffuDn9k-4">
          <mxGeometry width="160" relative="1" as="geometry">
            <mxPoint x="880" y="120" as="sourcePoint" />
            <mxPoint x="530" y="170" as="targetPoint" />
            <Array as="points" />
          </mxGeometry>
        </mxCell>
      </root>
    </mxGraphModel>
  </diagram>
</mxfile>
